<svg
  xmlns="http://www.w3.org/2000/svg" viewBox="0 0 200 200.016">
  <path d="M132.829 7.699c0-4.248 4.199-7.699 9.391-7.699s9.391 3.451 9.391 7.699v33.724c0 4.248-4.199 7.699-9.391 7.699s-9.391-3.451-9.391-7.699zm-25.228 161.263c-.553 0-.993-2.327-.993-5.208s.439-5.208.993-5.208h25.7c.553 0 .993 2.327.993 5.208s-.439 5.208-.993 5.208zm-81.803-59.766c-.553 0-.993-2.327-.993-5.208s.439-5.208.993-5.208h25.7c.553 0 .993 2.327.993 5.208s-.439 5.208-.993 5.208zm40.902 0c-.553 0-.993-2.327-.993-5.208s.439-5.208.993-5.208h25.7c.553 0 .993 2.327.993 5.208s-.439 5.208-.993 5.208zm40.902 0c-.553 0-.993-2.327-.993-5.208s.439-5.208.993-5.208h25.7c.553 0 .993 2.327.993 5.208s-.439 5.208-.993 5.208zm40.918 0c-.553 0-.993-2.327-.993-5.208s.439-5.208.993-5.208h25.7c.553 0 .993 2.327.993 5.208s-.439 5.208-.993 5.208zM25.798 139.079c-.553 0-.993-2.327-.993-5.208s.439-5.208.993-5.208h25.7c.553 0 .993 2.327.993 5.208s-.439 5.208-.993 5.208zm40.902 0c-.553 0-.993-2.327-.993-5.208s.439-5.208.993-5.208h25.7c.553 0 .993 2.327.993 5.208s-.439 5.208-.993 5.208zm40.902 0c-.553 0-.993-2.327-.993-5.208s.439-5.208.993-5.208h25.7c.553 0 .993 2.327.993 5.208s-.439 5.208-.993 5.208zm40.918 0c-.553 0-.993-2.327-.993-5.208s.439-5.208.993-5.208h25.7c.553 0 .993 2.327.993 5.208s-.439 5.208-.993 5.208zM25.798 168.962c-.553 0-.993-2.327-.993-5.208s.439-5.208.993-5.208h25.7c.553 0 .993 2.327.993 5.208s-.439 5.208-.993 5.208zm40.902 0c-.553 0-.993-2.327-.993-5.208s.439-5.208.993-5.208h25.7c.553 0 .993 2.327.993 5.208s-.439 5.208-.993 5.208zM48.193 7.699C48.193 3.451 52.393 0 57.585 0s9.391 3.451 9.391 7.699v33.724c0 4.248-4.199 7.699-9.391 7.699s-9.391-3.451-9.391-7.699zM10.417 73.763h179.15V34.945c0-1.302-.537-2.49-1.4-3.369-.863-.863-2.051-1.4-3.369-1.4h-17.155c-2.881 0-5.208-2.327-5.208-5.208s2.327-5.208 5.208-5.208h17.171c4.183 0 7.975 1.709 10.726 4.46S200 30.762 200 34.945v44.043 105.843c0 4.183-1.709 7.975-4.46 10.726s-6.543 4.46-10.726 4.46H15.186c-4.183 0-7.975-1.709-10.726-4.46C1.709 192.79 0 188.997 0 184.814V78.971 34.945c0-4.183 1.709-7.975 4.46-10.726s6.543-4.46 10.726-4.46h18.343c2.881 0 5.208 2.327 5.208 5.208s-2.327 5.208-5.208 5.208H15.186c-1.302 0-2.49.537-3.369 1.4-.863.863-1.4 2.051-1.4 3.369zm179.167 10.433H10.417v100.618c0 1.302.537 2.49 1.4 3.369.863.863 2.051 1.4 3.369 1.4h169.629c1.302 0 2.49-.537 3.369-1.4.863-.863 1.4-2.051 1.4-3.369zM82.08 30.176c-2.881 0-5.208-2.327-5.208-5.208s2.327-5.208 5.208-5.208h34.977c2.881 0 5.208 2.327 5.208 5.208s-2.327 5.208-5.208 5.208z"></path>
</svg>