<svg xmlns="http://www.w3.org/2000/svg" xmlns:xlink="http://www.w3.org/1999/xlink" aria-hidden="true" role="img" class="iconify iconify--ph" width="32" height="32" preserveAspectRatio="xMidYMid meet" viewBox="0 0 256 256"><path d="M224 99.999a8 8 0 1 1-16 .002l-.005-40.682l-58.367 58.367a8 8 0 1 1-11.314-11.315l58.367-58.366L155.999 48A8 8 0 0 1 156 32h.001l59.992.008a8 8 0 0 1 8 7.999zM184 136a8 8 0 0 0-8 8v64H48V80h64a8 8 0 0 0 0-16H48a16.018 16.018 0 0 0-16 16v128a16.018 16.018 0 0 0 16 16h128a16.018 16.018 0 0 0 16-16v-64a8 8 0 0 0-8-8z" fill="currentColor"></path></svg>